<svg height="512" viewBox="0 0 64 64" width="512" xmlns="http://www.w3.org/2000/svg"><rect fill="#394d5c" height="47" rx="2" width="58" x="3" y="3"/><path d="m27 50h10l4 6h-18z" fill="#5a6470"/><path d="m13 56h38v5h-38z" fill="#7d8d9c"/><path d="m3 42h58a0 0 0 0 1 0 0v6a2 2 0 0 1 -2 2h-54a2 2 0 0 1 -2-2v-6a0 0 0 0 1 0 0z" fill="#7d8d9c"/><path d="m31 45h2v2h-2z" fill="#394d5c"/><path d="m26 14h12v12h-12z" fill="#f9bb4b"/><path d="m30 14h-2v-4a4 4 0 0 1 8 0v1h-2v-1a2 2 0 0 0 -4 0z" fill="#f4f4e6"/><path d="m34 19a2 2 0 1 0 -3 1.722v2.278h2v-2.278a1.993 1.993 0 0 0 1-1.722z" fill="#394d5c"/><rect fill="#cfdfe8" height="8" rx="4" width="44" x="10" y="30"/><g fill="#394d5c"><path d="m31 33h2v2h-2z"/><path d="m35 33h2v2h-2z"/><path d="m39 33h2v2h-2z"/><path d="m43 33h2v2h-2z"/><path d="m19 33h2v2h-2z"/><path d="m23 33h2v2h-2z"/><path d="m27 33h2v2h-2z"/></g><path d="m16 19h6v2h-6z" fill="#fcf05a"/><path d="m18.5 12.307h2v5.385h-2z" fill="#fcf05a" transform="matrix(.371 -.928 .928 .371 -1.669 27.534)"/><path d="m16.807 24h5.385v2h-5.385z" fill="#fcf05a" transform="matrix(.929 -.371 .371 .929 -7.884 9.02)"/><path d="m42 19h6v2h-6z" fill="#fcf05a"/><path d="m41.807 14h5.385v2h-5.385z" fill="#fcf05a" transform="matrix(.929 -.371 .371 .929 -2.389 17.583)"/><path d="m43.5 22.307h2v5.385h-2z" fill="#fcf05a" transform="matrix(.371 -.928 .928 .371 4.761 57.032)"/><path d="m8 14h-2v-7a1 1 0 0 1 1-1h5v2h-4z" fill="#f4f4e6"/><path d="m6 16h2v2h-2z" fill="#f4f4e6"/></svg>